<?xml version="1.0" standalone="no"?><!DOCTYPE svg PUBLIC "-//W3C//DTD SVG 1.1//EN" "http://www.w3.org/Graphics/SVG/1.1/DTD/svg11.dtd"><svg t="1588261025132" class="icon" viewBox="0 0 1024 1024" version="1.1" xmlns="http://www.w3.org/2000/svg" p-id="5542" xmlns:xlink="http://www.w3.org/1999/xlink" width="200" height="200"><defs><style type="text/css"></style></defs><path d="M902.277889 522.548713c89.703515 260.906588-209.302868 431.615665-388.691898 486.241369-28.811844-8.773953-60.733671-20.539889-93.617493-35.195809-49.90573-22.24988-102.099448-51.163723-149.163193-86.383533-87.919524-65.739644-157.975145-153.39717-162.115123-260.52059-1.297993-32.905822 3.64798-67.647634 16.201912-104.139437 39.031789-113.539386 32.405825-202.366905 12.491933-266.484558C111.510167 172.808605 63.212428 131.17683 63.212428 131.17683l134.555272-115.959372s27.459851 15.327917 74.623596 25.059864c50.977724 10.539943 124.985324 14.539921 212.240852-14.419922a478.481411 478.481411 0 0 0 28.953843-10.639942c143.077226 57.889687 255.350619 25.319863 297.62239 8.311955h0.024c11.819936-4.765974 18.171902-8.313955 18.171902-8.313955l123.585331 106.515423 10.967941 9.445949s-151.365181 130.467294-61.679666 391.371883z m0 0" fill="#F9C84E" p-id="5543"></path><path d="M484.632148 25.8574L108.690182 626.69015c-1.297993-32.905822 3.64798-67.647634 16.201912-104.139437 39.031789-113.539386 32.405825-202.366905 12.491933-266.484558l135.007269-215.786833c50.977724 10.539943 124.985324 14.539921 212.240852-14.421922z m0 0M952.989614 121.730881L419.968498 973.594273c-49.90573-22.24988-102.099448-51.163723-149.163193-86.383533L811.208381 23.529413h0.024c11.819936-4.765974 18.171902-8.313955 18.171902-8.313955z m0 0" fill="#FFDD92" p-id="5544"></path><path d="M513.585991 923.532544c-118.131361-40.73578-251.826638-121.843341-302.444363-220.984805-25.085864-49.123734-28.209847-99.381462-9.553949-153.639169 66.57764-193.646952 19.389895-329.982215-27.131853-406.5278l39.077789-33.679818c33.22582 10.467943 79.967567 20.545889 136.77126 20.545889h0.024c54.523705 0 109.297409-9.24995 163.257116-27.539851 53.959708 18.289901 108.741412 27.539851 163.273117 27.539851 56.811693 0 103.55344-10.077945 136.77926-20.539889l39.079789 33.673818c-46.531748 76.545586-93.711493 212.872848-27.139854 406.5278 18.653899 54.257706 15.529916 104.515435-9.547948 153.639169-50.609726 99.139464-184.313003 180.249025-302.444364 220.984805z m0 0" fill="#F7A34F" p-id="5545"></path><path d="M688.999042 543.634599l22.773877 31.101832-39.539786-4.295977-101.429451-11.03194-57.217691 129.757298-49.131734-111.419398-8.093956-18.3379-140.959237 15.327917 83.763546-114.419381-83.765546-114.445381 140.959237 15.327917 57.22769-129.749298 57.219691 129.749298 31.247831-3.405982 109.719406-11.921935-83.765547 114.443381z m0 0" fill="#F9C84E" p-id="5546"></path><path d="M628.007372 460.31505L688.999042 543.634599l-16.765909 26.805855-101.429451-11.03194-57.217691 129.757298-49.131734-111.419398 137.599256-219.95281 109.719406-11.921935z m0 0" fill="#FFDD92" p-id="5547"></path><path d="M513.585991 1024c-1.491992 0-2.983984-0.219999-4.429976-0.655996-132.399284-40.319782-312.35831-137.053259-383.801923-277.006502-37.069799-72.609607-42.061772-149.569191-14.84392-228.732762 24.725866-71.929611 45.327755-179.38303 3.093983-282.83447C88.64229 173.636601 53.62648 142.996766 53.282482 142.700768a15.197918 15.197918 0 0 1 0-23.039875L187.837754 3.69352a15.211918 15.211918 0 0 1 17.351906-1.75999c0.287998 0.165999 32.467824 17.703904 85.679536 26.281857 48.935735 7.891957 126.311317 9.593948 217.012826-27.099853a15.239918 15.239918 0 0 1 11.407939 0c90.701509 36.693801 168.083091 34.991811 217.012825 27.099853C789.514499 19.637434 821.694325 2.091529 822.014323 1.91953a15.255917 15.255917 0 0 1 17.319906 1.77399l134.553272 115.959373a15.197918 15.197918 0 0 1 0 23.039875c-0.327998 0.287998-36.163804 31.975827-60.95167 93.631493-32.789823 81.547559-31.49983 178.811033 3.71998 281.278479 33.999816 98.883465 18.051902 193.272954-47.391744 280.546482a15.205918 15.205918 0 1 1-24.327868-18.249901c59.021681-78.719574 73.475602-163.639115 42.959767-252.412635-47.865741-139.239247-27.77385-242.286689-2.491986-304.218354 18.4759-45.247755 42.099772-75.599591 56.279695-91.217506L827.078295 33.28736c-14.257923 6.475965-43.553764 17.959903-84.429543 24.709866-52.039718 8.599953-133.631277 10.827941-229.060761-26.419857C418.156508 68.825168 336.554949 66.59518 284.517231 58.005226c-40.867779-6.757963-70.16362-18.241901-84.421544-24.719866L85.486308 132.060826c14.171923 15.617916 37.805795 45.969751 56.279695 91.219506 25.281863 61.919665 45.367755 164.967108-2.489987 304.208354-24.437868 71.061616-19.999892 140.047242 13.171929 205.022891 66.327641 129.929297 234.888729 221.014804 361.130046 260.364591 47.945741-15.021919 190.30297-66.037643 292.888416-168.827086a15.203918 15.203918 0 0 1 21.507884-0.014 15.201918 15.201918 0 0 1 0.023999 21.499884c-110.9594 111.171399-265.318565 164.201112-309.982323 177.803038a15.033919 15.033919 0 0 1-4.429976 0.663996z m0 0" p-id="5548"></path><path d="M513.585991 938.734461c-1.671991 0-3.351982-0.279998-4.959973-0.827995-63.735655-21.983881-127.743309-54.109707-180.243025-90.467511-61.06967-42.305771-106.303425-90.015513-130.795292-137.977253-27.061854-52.983713-30.459835-107.12342-10.389944-165.499105 28.843844-83.865546 38.373792-164.335111 28.327847-239.178706a15.203918 15.203918 0 0 1 13.045929-17.091907c8.327955-1.133994 15.983914 4.719974 17.099908 13.045929 10.679942 79.56957 0.689996 164.733109-29.709839 253.116631-17.239907 50.155729-14.389922 96.529478 8.719952 141.771233 31.757828 62.187664 126.365316 154.555164 288.904437 211.796854 162.539121-57.24169 257.146609-149.609191 288.912437-211.796854 23.099875-45.239755 25.95386-91.615504 8.709953-141.771233-64.67965-188.084982-25.583862-324.296246 21.977881-408.223792l-23.125875-19.929892c-42.373771 12.443933-87.147529 18.757899-133.201279 18.757898-54.453705 0-109.359408-8.985951-163.273117-26.711855-53.913708 17.725904-108.803411 26.711855-163.249116 26.711855-46.079751 0-90.851508-6.313966-133.22528-18.759898l-23.125874 19.931892c16.54791 29.239842 29.60984 60.591672 38.899789 93.397495a15.203918 15.203918 0 0 1-10.493943 18.771898 15.203918 15.203918 0 0 1-18.771899-10.491943c-9.735947-34.359814-23.913871-67.007637-42.163772-97.013475a15.211918 15.211918 0 0 1 3.069984-19.421895l39.069789-33.679818a15.205918 15.205918 0 0 1 14.499921-2.983984c41.811774 13.163929 86.303533 19.835893 132.219285 19.835893 52.779714 0 106.059426-8.993951 158.389143-26.735855a15.251917 15.251917 0 0 1 9.763947 0c52.327717 17.741904 105.617429 26.735855 158.391143 26.735855 45.919752 0 90.405511-6.671964 132.219285-19.835893a15.201918 15.201918 0 0 1 14.499921 2.983984l39.067789 33.679818a15.211918 15.211918 0 0 1 3.069983 19.419895c-46.951746 77.203582-89.529516 208.178874-25.73986 393.66987 20.067891 58.383684 16.66991 112.515391-10.391944 165.499105-24.491867 47.959741-69.725623 95.671482-130.795293 137.977253-52.493716 36.359803-116.50737 68.483629-180.243024 90.467511a15.407917 15.407917 0 0 1-4.959974 0.827995z m0 0" p-id="5549"></path><path d="M513.585991 704.377729a15.215918 15.215918 0 0 1-13.913924-9.071951l-52.725715-119.577353-129.913297 14.133924c-5.969968 0.655996-11.797936-2.297988-14.81392-7.51596s-2.663986-11.725937 0.899995-16.58591l77.193582-105.445429-77.193582-105.44343a15.209918 15.209918 0 0 1 13.913925-24.10187l129.913297 14.123924 52.725715-119.577353c2.429987-5.50797 7.889957-9.069951 13.913924-9.069951s11.483938 3.561981 13.913925 9.069951l52.725715 119.579353 129.913297-14.125924a15.209918 15.209918 0 0 1 13.913925 24.09987l-77.185583 105.44543 77.185583 105.445429a15.195918 15.195918 0 0 1 0.899995 16.58591 15.205918 15.205918 0 0 1-14.81392 7.51596l-129.913297-14.133924-52.725715 119.579353a15.215918 15.215918 0 0 1-13.913925 9.067951z m-57.21169-160.179133a15.221918 15.221918 0 0 1 13.915925 9.069951l43.295765 98.201468 43.295766-98.201468a15.225918 15.225918 0 0 1 15.563916-8.983952l106.685423 11.607938-63.389657-86.599532a15.215918 15.215918 0 0 1 0-17.969903l63.389657-86.593531-106.685423 11.601937a15.219918 15.219918 0 0 1-15.563916-8.983951l-43.295766-98.203469-43.295765 98.203469a15.215918 15.215918 0 0 1-15.563916 8.983951l-106.693423-11.609937 63.397657 86.601531a15.215918 15.215918 0 0 1 0 17.969903l-63.399657 86.591532 106.695423-11.599938c0.555997-0.056 1.101994-0.086 1.649991-0.085999z m0 0" p-id="5550"></path></svg>