<?xml version="1.0" standalone="no"?><!DOCTYPE svg PUBLIC "-//W3C//DTD SVG 1.1//EN" "http://www.w3.org/Graphics/SVG/1.1/DTD/svg11.dtd"><svg t="1588260923724" class="icon" viewBox="0 0 1024 1024" version="1.1" xmlns="http://www.w3.org/2000/svg" p-id="4025" xmlns:xlink="http://www.w3.org/1999/xlink" width="200" height="200"><defs><style type="text/css"></style></defs><path d="M959.992 597.31c0 11.78-9.562 21.342-21.312 21.342-11.812 0-21.376-9.562-21.376-21.342 0-11.782 9.562-21.312 21.376-21.312 11.75 0 21.312 9.532 21.312 21.312z" fill="#5D9CEC" p-id="4026"></path><path d="M789.304 42.666c0 11.782-9.532 21.344-21.312 21.344s-21.312-9.562-21.312-21.344 9.532-21.344 21.312-21.344 21.312 9.562 21.312 21.344z" fill="#FC6E51" p-id="4027"></path><path d="M277.334 1002.644c0 11.782-9.546 21.344-21.328 21.344-11.78 0-21.328-9.562-21.328-21.344s9.546-21.342 21.328-21.342c11.78 0 21.328 9.562 21.328 21.342z" fill="#ED5564" p-id="4028"></path><path d="M85.344 682.652m-21.336 0a21.336 21.336 0 1 0 42.672 0 21.336 21.336 0 1 0-42.672 0Z" fill="#FFCE54" p-id="4029"></path><path d="M256.004 42.666V21.322c0-11.78-9.546-21.31-21.328-21.31s-21.344 9.532-21.344 21.31v21.344c-11.78 0-21.328 9.532-21.328 21.344 0 11.782 9.546 21.312 21.328 21.312v21.344c0 11.782 9.562 21.344 21.344 21.344s21.328-9.562 21.328-21.344V85.322c11.782 0 21.328-9.532 21.328-21.312a21.318 21.318 0 0 0-21.328-21.344z" fill="#48CFAD" p-id="4030"></path><path d="M895.992 853.304v-21.31c0-11.814-9.562-21.346-21.312-21.346-11.812 0-21.376 9.532-21.376 21.346v21.31c-11.75 0-21.312 9.562-21.312 21.344s9.562 21.344 21.312 21.344v21.31c0 11.782 9.562 21.344 21.376 21.344 11.75 0 21.312-9.562 21.312-21.344v-21.31c11.782 0 21.312-9.562 21.312-21.344s-9.53-21.344-21.312-21.344z" fill="#AC92EB" p-id="4031"></path><path d="M490.656 981.302A35.664 35.664 0 0 1 470 974.77c-0.078-0.032-0.14-0.094-0.204-0.124-178.354-128.404-373.022-382.116-384.442-709.234-0.016-0.5-0.016-1.032 0-1.532l0.14-3.718c0.296-19.844 16.264-36.032 35.89-36.406 65.03-2.594 228.134-20.342 344.742-128.558 6.624-6.218 15.202-9.75 24.156-9.876h0.704a36.094 36.094 0 0 1 19.016 5.812c1.016 0.656 1.968 1.376 2.842 2.188 0.876 0.594 1.704 1.25 2.486 1.968 116.48 108.154 279.79 125.872 344.914 128.464 19.376 0.376 35.188 16.438 35.594 36.188l0.124 2.25c0.032 0.624 0.032 1.25 0.032 1.876-2.624 77.904-15.812 155.434-39.282 230.432-21.344 68.28-51.312 134.902-89.032 197.996-65.562 109.684-155.684 209.278-253.758 280.432-0.094 0.062-0.172 0.124-0.25 0.156l-2.374 1.688a35.608 35.608 0 0 1-20.642 6.53z" fill="#FFCE54" p-id="4032"></path><path d="M810.242 284.194c-41.562-4.5-82.438-12.5-121.434-23.75-70.968-20.468-133.25-51.154-185.106-91.216a21.314 21.314 0 0 0-26.078 0c-51.858 40.032-114.106 70.716-185.012 91.186-39.078 11.312-79.966 19.312-121.576 23.782-11.562 1.25-20 11.562-18.952 23.154 5.204 57.344 16.688 114.466 34.124 169.778 20.046 63.594 48.156 125.652 83.544 184.528 55.124 91.654 126.92 174.124 207.62 238.434 3.89 3.094 8.594 4.656 13.296 4.656s9.406-1.562 13.296-4.656c56.934-45.406 139.496-124.094 209.336-241.34 65.812-110.436 104.812-228.65 115.906-351.43 1.036-11.596-7.402-21.876-18.964-23.126z m-133.558 352.708c-61.312 102.874-132.778 174.558-186.012 218.964-70.56-58.968-135.622-135.186-184.356-216.214-33.656-55.966-60.374-114.964-79.42-175.37a769.008 769.008 0 0 1-30.17-140.216c36.78-5 72.936-12.594 107.732-22.656 70.264-20.31 132.826-50.092 186.2-88.684 53.376 38.592 115.964 68.404 186.308 88.714 34.746 10.032 70.84 17.594 107.622 22.594-12.846 109.03-49.096 214.154-107.904 312.868z" fill="#F6BB42" p-id="4033"></path><path d="M383.988 448.002l106.668-63.998 106.652 63.998v127.996l-106.652 63.998-106.668-63.998z" fill="#ED5564" p-id="4034"></path><path d="M383.988 448.002L490.656 512v-127.996zM490.656 512l106.652 63.998v-127.996zM383.988 575.998L490.656 512v127.996z" fill="#DA4453" p-id="4035"></path></svg>